<?xml version="1.0" encoding="UTF-8"?><svg id="a" xmlns="http://www.w3.org/2000/svg" viewBox="0 0 1194.55 314.18"><path d="M107.17,223.4c-6.79,21.06-21.06,30.65-45.39,30.65h-7.72c-7.49,0-10.76-4.21-10.76-13.34v-52.88h19.19c18.72,0,28.55,7.96,28.55,20.59,0,.7,2.81.7,2.81,0,0-8.89-.7-15.91-.7-23.86,0-6.32.23-10.77.23-21.06,0-.94-2.57-.94-2.57,0,0,11-9.59,17.78-28.08,17.78h-19.42v-47.73c0-8.42,4.21-12.4,13.57-12.4h7.02c19.42,0,30.89,8.42,36.03,26.67.47.94,2.81.47,2.81-.24l-.47-31.12c0-1.4-.47-2.1-2.34-2.1H.7c-.94,0-.94,2.81,0,2.81,14.27,0,16.61,2.81,16.61,16.14v108.34c0,13.57-2.34,16.14-16.61,16.14-.94,0-.94,2.81,0,2.81h103.42c2.81,0,3.51-.94,3.51-3.51,0-10.53,1.17-24.1,2.34-33.22,0-.7-2.57-1.41-2.81-.47Z" fill="#1f4d3a"/><path d="M398.24,308.8c-3.51.47-6.08.7-13.57.7-67.15,0-131.97-44.22-147.88-55.22l-2.57.47c26.21-12.87,44.46-38.37,44.46-68.79,0-37.67-27.84-74.17-73.94-74.17-37.91,0-82.36,25.04-82.36,75.81,0,41.18,29.25,75.81,74.17,75.81,3.28,0,6.55-.23,9.83-.47,47.27,29.01,107.4,51.24,164.26,51.24,13.1,0,21.29-1.4,28.55-3.04.7-.23,0-2.57-.94-2.34ZM204.73,257.56c-31.12,0-52.88-32.99-53.58-77.45-.47-39.31,15.68-62.01,43.99-62.01,34.16,0,54.05,32.52,54.75,73.24,1.17,43.52-19.66,66.22-45.16,66.22Z" fill="#1f4d3a"/><path d="M445.97,117.17c.94,0,.94-2.81,0-2.81-8.19,0-18.48.7-29.72.7s-20.59-.7-28.78-.7c-.7,0-.7,2.81,0,2.81,14.51,0,16.61,3.27,16.61,16.61v99.91c-14.51,13.81-27.14,20.36-42.35,20.36-22.7,0-38.37-15.44-38.37-45.16v-75.11c0-13.34,2.57-16.61,16.85-16.61.7,0,.7-2.81,0-2.81-7.96,0-18.25.7-29.95.7s-21.29-.7-29.48-.7c-.94,0-.94,2.81,0,2.81,14.27,0,16.61,2.81,16.61,16.14v83.77c0,28.55,24.33,46.33,54.75,46.33,20.13,0,35.8-7.72,51.95-23.17v15.91c0,3.98.7,4.45,4.44,4.45,6.32,0,9.59-.23,16.61-.23,7.72,0,14.04.23,20.82.23.94,0,.94-2.81,0-2.81-14.27,0-16.85-2.57-16.85-16.14v-108.34c0-13.34,2.57-16.14,16.85-16.14Z" fill="#1f4d3a"/><path d="M625.91,257.79c-7.72,0-13.8-7.02-24.8-29.25l-58.5-115.12c-.47-1.17-3.98-.94-4.21,0l-50.78,111.61c-11.93,26.44-17.78,32.76-30.42,32.76-1.17,0-1.17,2.81,0,2.81,10.53,0,15.91-.94,28.08-.94s18.25.94,27.61.94c1.4,0,1.4-2.81,0-2.81-17.55,0-27.38-11.7-18.95-30.42l16.61-36.74h41.65l24.33,47.97c7.72,15.21,6.08,19.19-6.79,19.19-1.4,0-1.4,2.81,0,2.81,9.59,0,16.15-.94,26.91-.94,9.36,0,19.89.94,29.25.94,1.4,0,1.4-2.81,0-2.81ZM513.59,184.09l16.61-36.97,18.72,36.97h-35.33Z" fill="#1f4d3a"/><path d="M796.01,257.79c-18.72,0-37.21-20.82-73.47-77.92,13.57-7.96,23.63-21.76,23.63-36.5,0-18.72-16.38-29.72-45.16-29.72-10.3,0-22,1.4-31.35,1.4-11.23,0-21.29-.7-29.48-.7-.7,0-.7,2.81,0,2.81,14.27,0,16.61,2.81,16.61,16.14v108.34c0,13.57-2.57,16.14-16.85,16.14-.94,0-.94,2.81,0,2.81,8.19,0,18.49-.47,29.72-.47,11.93,0,21.76.47,29.95.47.7,0,.7-2.81,0-2.81-14.51,0-16.61-2.57-16.61-16.14v-54.29c3.74.23,8.42.23,12.87.23,2.1,0,3.98-.23,6.08-.47,26.44,45.63,46.33,73.47,53.11,73.47h40.95c.7,0,.7-2.81,0-2.81ZM696.57,181.51c-3.74,0-9.36-.24-13.57-.94v-46.8c0-10.76,3.74-15.21,14.51-15.21,12.4,0,21.76,6.09,21.76,33.69,0,22.93-6.32,29.25-22.7,29.25Z" fill="#1f4d3a"/><path d="M868.08,117.17c.94,0,.94-2.81,0-2.81-7.96,0-18.02.7-29.95.7-11.23,0-21.76-.7-29.95-.7-.7,0-.7,2.81,0,2.81,14.27,0,17.08,2.81,17.08,16.14v108.34c0,13.57-2.81,16.14-17.08,16.14-.7,0-.7,2.81,0,2.81,8.19,0,18.72-.47,29.95-.47,11.93,0,21.76.47,29.95.47.94,0,.94-2.81,0-2.81-14.51,0-16.61-2.57-16.61-16.14v-107.87c0-13.34,2.34-16.61,16.61-16.61Z" fill="#1f4d3a"/><path d="M1194.02,114.36c-6.79,0-15.21.7-23.63.7s-15.91-.7-22.7-.7c-.7,0-.7,2.81,0,2.81,12.17,0,19.42,10.53,19.42,27.14v75.58l-80.96-93.36c-7.49-8.89-7.72-12.17-11.7-12.17-4.91,0-14.51.47-25.74.47-5.62,0-12.64-.47-18.72-.47-.7,0-.7,2.81,0,2.81,7.49,0,14.04,3.27,24.57,14.74v98.98c0,16.61-8.66,26.91-22.23,26.91-.94,0-.94,2.81,0,2.81,7.49,0,16.61-.47,25.97-.47,8.66,0,15.91.47,22.7.47.7,0,.7-2.81,0-2.81-12.17,0-19.42-10.3-19.42-26.91v-91.02l109.74,124.95c.47.47,2.57.24,2.57-.7v-119.8c0-16.61,7.72-27.14,20.13-27.14.7,0,.7-2.81,0-2.81Z" fill="#1f4d3a"/><path d="M1052.8,55.84c-10.78,0-42.53-11.84-42.53-11.84-7.79-2.79-28.76-9.75-37.14-15.32-8.39-5.57-54.52-20.89-80.28-25.77-25.76-4.87-17.37-4.18-44.33,6.27-26.96,10.45-32.35,13.23-49.12,18.11-16.77,4.87-81.17,18.28-82.97,18.28s-10.33-3.31-28.91-3.31S534-.57,500.45,1.52c-33.55,2.09-38.34.7-55.71,11.14-17.37,10.45-79.08,8.36-104.24,26.46-25.16,18.11-46.13,12.53-83.27,4.87-37.14-7.66-25.76-4.18-65.9,2.09S5.02,81.6,5.02,81.6h1185.67c-17.07-3.4-91.46-18.19-98.35-18.8-7.79-.7-28.76-6.96-39.54-6.96Z" fill="#8a6b4a"/><path d="M113.13,63.5s59.02-10.97,64.94-11.66c5.92-.7,25.94-4,29.25-4.87s13.23-3.66,14.62-3.83,3.48-1.74,12.71-.17c9.23,1.57,29.6,5.4,44.74,8.18,15.15,2.79,21.06,4,26.98,3.83s15.49-2.26,15.49-2.26c0,0-15.32,5.74-23.33,5.22-8.01-.52-55.53-9.57-61.45-9.05s-6.79-1.57-13.23,0c-6.44,1.57-40.04,5.92-43.87,5.92s-66.85,8.7-66.85,8.7Z" fill="#fff" opacity=".5"/><g opacity=".5"><path d="M680.66,46.09c-5.74-.17-40.21-9.92-43.7-9.92s-115.77-28.03-125.17-29.07c-9.4-1.04-49.79,1.92-54.49,4.7-4.7,2.79-12.88,7.14-17.41,8.88-4.53,1.74-47.87,7.49-58.32,8.53s-27.68,6.62-33.25,9.75c-5.57,3.13-13.23,7.49-13.23,7.49,0,0,14.62-3.83,20.19-7.14,5.57-3.31,21.06-4.87,30.29-5.57,9.23-.7,48.4-7.49,56.58-8.7s17.06-7.83,24.02-9.05c6.96-1.22,15.84.35,26.29-.35,10.45-.7,26.64,0,32.9,1.74,6.27,1.74,91.4,22.11,100.62,24.02,9.23,1.91,41.04,8.66,54.45,7.96,10.24-.53,26.03.03,35.4-.07-.12-.02-.25-.04-.37-.06-7.14-1.39-29.07-2.96-34.82-3.13Z" fill="#fff"/></g><path d="M735.15,49.22s80.43-10.97,102.36-23.5c21.94-12.53,32.38-19.32,42.83-15.15,10.45,4.18,71.55,17.76,75.73,22.46,4.18,4.7,76.77,28.72,86.7,28.72s25.85.78,38.91,3.13c13.06,2.35,38.39,7.05,38.39,7.05,0,0-31.34-3.92-44.92-3.92s-21.67-1.83-29.51-2.09c-7.83-.26-68.16-11.75-78.34-17.76-10.18-6.01-18.54-12.27-25.85-13.06-7.31-.78-50.92-11.23-56.41-14.36-5.48-3.13-15.67-1.31-18.8,1.04-3.13,2.35-31.34,13.32-42.04,15.41-10.71,2.09-60.58,11.75-89.05,12.01Z" fill="#fff" opacity=".5"/><path d="M956.69,112.46c-37.47,0-81.42,24.75-81.42,74.94,0,40.71,28.91,74.94,73.32,74.94,2.46,0,4.89-.12,7.3-.33,55.08-17.52,56.78-54.16,56.78-54.16l-3.87,2.78c6.83-17.42.36-33.36.36-33.36l-.72,6.92c-4.67-16.03-21.85-25.5-21.85-25.5,32.45,36.07,1.28,69.02,1.28,69.02,6.24-16.2-.81-26.13-.81-26.13,3.01,9.27-1.03,19.49-12.8,28.8-12.61,9.97-16.34,23.37-16.34,23.37-2.67-17.36,24.04-36.06,17.36-52.76-6.68-16.7-21.04-14.69-21.04-14.69-.5-7.76-3.67-11.19-3.67-11.19,7.18,19.03-6.26,24.88-8.81,26.38-2.55,1.5-7.51,11.1-10.02,14.73-2.5,3.63-3.05,2.55-3.26,6.47-.21,3.92-.75,3.26-3.97,6.85-3.21,3.59-4.59,2.55-6.85,1.59-2.25-.96-4.47.63-7.89-1.34-3.42-1.96-4.3-6.43-5.84-9.98-1.71-5.05.63-9.14,1.71-13.23,1.09-4.09,3.51-23.54,4.17-30.05.67-6.51,0-8.43,0-8.43-.5.58-2.84,4.84-2.84,4.84.83-9.68,5.68-18.53,5.68-18.53-4.34-2.34-6.09-7.68-6.09-7.68l6.01.58c-2-1.25-3.51-3.59-3.51-3.59,9.18-.67,14.28,1.84,14.28,1.84,0,0,8.18-7.18,28.05-12.19.1-.02.2-.04.3-.06,20.53-4.02,41.82,3.91,54.48,20.56,8.63,11.35,13.76,25.52,13.76,40.88,0,26.57-15.34,49.54-37.63,60.6,27.7-11.99,47.44-38.27,47.44-69.59,0-37.24-27.52-73.32-73.09-73.32Z" fill="#1f4d3a"/><path d="M996.61,153.56c-.88-1.2-2.27-2.14-3.61-3.37-1.39-1.18-2.83-2.55-4.7-3.53-1.83-1.01-3.61-2.43-5.81-3.14-2.15-.82-4.31-1.9-6.72-2.29-1.18-.27-2.37-.54-3.57-.81l-3.67-.35c-2.46-.32-4.91-.02-7.32.02-1.21.04-2.38.31-3.55.48-1.16.2-2.32.32-3.42.64-2.22.54-4.35,1.11-6.3,1.87-1.99.63-3.76,1.5-5.41,2.24-3.27,1.57-5.81,3.19-7.54,4.36-1.74,1.18-2.63,1.98-2.63,1.98,0,0,1.06-.57,2.94-1.43,1.86-.93,4.63-2,7.94-3.19,1.68-.54,3.47-1.17,5.43-1.65,1.92-.59,4.01-.93,6.14-1.37,2.13-.4,4.38-.57,6.63-.79,2.27,0,4.58-.26,6.85.09l3.43.27c1.12.24,2.23.47,3.33.71,2.24.35,4.31,1.19,6.35,1.88,2.1.58,3.85,1.77,5.67,2.58,1.84.8,3.35,1.95,4.81,2.92.73.49,1.43.96,2.09,1.41.7.41,1.31.86,1.83,1.36,1.09.94,2.04,1.77,2.82,2.44,1.58,1.35,2.53,2.11,2.53,2.11,0,0-.72-.94-2.07-2.55-.68-.8-1.51-1.78-2.46-2.9Z" fill="#1f4d3a"/><path d="M917.28,184.58c2.28.37,4.81-1.01,5.22-2.64.4-1.59,2.25-2.96,2.34-3.02-.14.1-1.23.79-5.01.58-4.08-.23-4.27,2.43-4.17,4.01.1,1.59-.59,3.15-.59,3.15,0,0,1.5-2.11,2.21-2.07Z" fill="#1f4d3a"/></svg>